# xmcd
#
# Track frame offsets:
# 150
# 7701
# 22351
# 33344
# 44086
# 54274
# 65587
# 88105
# 108118
# 124365
# 138050
# 147597
# 164279
# 173872
# 188473
# 205616
#
# Disc length: 2952 seconds
#
#
# Revision: 0
# Processed by: cddbd v1.5.1PL0 Copyright (c) Steve Scherf et al.
# Submitted via: FreeRIP 2.93 
#
DISCID=d80b8610
DTITLE=Montana - Svitanie
DYEAR=1900
DGENRE=Country
TTITLE0=Rano
TTITLE1=Jesen
TTITLE2=Soumrak
TTITLE3=Smer Raj
TTITLE4=Navrat
TTITLE5=Na perone
TTITLE6=Pramen
TTITLE7=Prve luce
TTITLE8=November
TTITLE9=Koniec
TTITLE10=Vecer
TTITLE11=Lava
TTITLE12=Na ceste
TTITLE13=Burka
TTITLE14=Odchadzam
TTITLE15=Znak
EXTD=
EXTT0=
EXTT1=
EXTT2=
EXTT3=
EXTT4=
EXTT5=
EXTT6=
EXTT7=
EXTT8=
EXTT9=
EXTT10=
EXTT11=
EXTT12=
EXTT13=
EXTT14=
EXTT15=
PLAYORDER=
